<?xml version="1.0" encoding="utf-8"?>
<!-- Generator: Adobe Illustrator 20.1.0, SVG Export Plug-In . SVG Version: 6.00 Build 0)  -->
<svg version="1.1" id="Layer_1" xmlns="http://www.w3.org/2000/svg" xmlns:xlink="http://www.w3.org/1999/xlink" x="0px" y="0px"
	 viewBox="0 0 27.5 36" style="enable-background:new 0 0 27.5 36;" xml:space="preserve">
<g>
	<path d="M3.6,33.8c-0.3,0.1-0.8,0.1-1-0.2c-0.4-0.4-0.4-1,0-1.4c0.8-0.8,0.8-2,0.8-3.4c0-1.7-0.1-3.5,1.5-5
		c0.8-0.8,1.7-1.3,2.6-1.7c0.8-0.4,1.5-0.8,2.1-1.3c1.1-1,1.9-2.3,2.3-3.7l0.1-0.3c0.4-1.6,0.8-3,2.1-4.5c0.8-0.9,2-1.4,3-1.9
		c0.7-0.3,1.3-0.6,1.9-1c1.3-0.9,2.3-2,2.9-2.9c0.5-0.8,0.6-1.7,0.7-2.7c0.1-0.5,0.1-0.9,0.2-1.4l0-0.2c0.1-0.5,0.6-0.9,1.2-0.8
		c0.5,0.1,0.9,0.6,0.8,1.2l0,0.2c-0.1,0.5-0.1,0.9-0.2,1.3c-0.1,1.1-0.3,2.3-1,3.5c-1,1.6-2.6,2.9-3.5,3.5c-0.7,0.5-1.5,0.8-2.2,1.2
		c-0.9,0.4-1.8,0.8-2.4,1.5c-1,1.1-1.3,2.1-1.7,3.7l-0.1,0.3c-0.5,1.8-1.4,3.4-2.8,4.7c-0.8,0.7-1.6,1.2-2.5,1.6
		c-0.8,0.4-1.6,0.8-2.1,1.4c-0.9,0.9-0.9,2.1-0.9,3.5c0,1.6,0.1,3.4-1.3,4.8C3.8,33.7,3.7,33.8,3.6,33.8z"/>
</g>
</svg>
