<svg xmlns="http://www.w3.org/2000/svg" xmlns:xlink="http://www.w3.org/1999/xlink" version="1.1" x="0px" y="0px" viewBox="0 0 48 60" enable-background="new 0 0 48 48" xml:space="preserve"><g><path d="M17.32,44.375c-0.37,0-0.725-0.205-0.899-0.56c-0.243-0.496-0.038-1.095,0.458-1.338c1.056-0.519,1.447-1.648,1.9-2.957   c0.541-1.562,1.153-3.331,3.082-4.203c1.003-0.455,2.047-0.59,3.056-0.72c0.863-0.111,1.679-0.217,2.386-0.515   c1.41-0.59,2.588-1.531,3.409-2.724l0.162-0.235c0.954-1.388,1.778-2.586,3.518-3.505c1.104-0.581,2.328-0.68,3.513-0.774   c0.749-0.06,1.457-0.116,2.091-0.29c1.489-0.407,2.858-1.052,3.755-1.767c0.775-0.616,1.168-1.386,1.622-2.278   c0.208-0.408,0.421-0.822,0.671-1.234l0.092-0.164c0.277-0.479,0.891-0.64,1.367-0.363c0.478,0.277,0.641,0.889,0.363,1.367   l-0.089,0.158c-0.248,0.41-0.437,0.78-0.622,1.145c-0.514,1.008-1.045,2.049-2.159,2.935c-1.506,1.2-3.448,1.851-4.473,2.131   c-0.814,0.223-1.65,0.289-2.459,0.354c-1.028,0.082-2,0.16-2.739,0.549c-1.303,0.688-1.899,1.556-2.803,2.869l-0.163,0.238   c-1.038,1.508-2.519,2.694-4.282,3.433c-0.956,0.401-1.945,0.529-2.902,0.653c-0.903,0.116-1.756,0.227-2.488,0.559   c-1.145,0.518-1.548,1.685-2.016,3.035c-0.522,1.508-1.114,3.218-2.909,4.098C17.618,44.343,17.467,44.375,17.32,44.375z"/></g></svg>