<svg xmlns="http://www.w3.org/2000/svg" xmlns:xlink="http://www.w3.org/1999/xlink" version="1.1" x="0px" y="0px" viewBox="0 0 100 125" enable-background="new 0 0 100 100" xml:space="preserve"><path fill="#000000" d="M79.634,5.366c-0.488-0.488-1.279-0.488-1.768,0l-72.5,72.5c-0.488,0.488-0.488,1.279,0,1.768l15,15  C20.61,94.878,20.93,95,21.25,95s0.64-0.122,0.884-0.366l72.5-72.5c0.488-0.488,0.488-1.279,0-1.768L79.634,5.366z M21.25,91.982  L8.018,78.75l3.674-3.674l4.116,4.116c0.122,0.122,0.282,0.183,0.442,0.183s0.32-0.061,0.442-0.183c0.243-0.244,0.243-0.64,0-0.884  l-4.116-4.116l1.616-1.616l1.616,1.616c0.122,0.122,0.282,0.183,0.442,0.183s0.32-0.061,0.442-0.183c0.243-0.244,0.243-0.64,0-0.884  l-1.616-1.616l1.616-1.616l2.866,2.866c0.122,0.122,0.282,0.183,0.442,0.183s0.32-0.061,0.442-0.183c0.243-0.244,0.243-0.64,0-0.884  l-2.866-2.866l1.616-1.616l1.616,1.616c0.122,0.122,0.282,0.183,0.442,0.183s0.32-0.061,0.442-0.183c0.243-0.244,0.243-0.64,0-0.884  l-1.616-1.616l1.616-1.616l4.116,4.116c0.122,0.122,0.282,0.183,0.442,0.183s0.32-0.061,0.442-0.183c0.243-0.244,0.243-0.64,0-0.884  l-4.116-4.116l1.616-1.616l1.616,1.616c0.122,0.122,0.282,0.183,0.442,0.183s0.32-0.061,0.442-0.183c0.243-0.244,0.243-0.64,0-0.884  l-1.616-1.616l1.616-1.616l2.866,2.866c0.122,0.122,0.282,0.183,0.442,0.183s0.32-0.061,0.442-0.183c0.243-0.244,0.243-0.64,0-0.884  l-2.866-2.866l1.616-1.616l1.616,1.616c0.122,0.122,0.282,0.183,0.442,0.183s0.32-0.061,0.442-0.183c0.243-0.244,0.243-0.64,0-0.884  l-1.616-1.616l1.616-1.616l4.116,4.116c0.122,0.122,0.282,0.183,0.442,0.183s0.32-0.061,0.442-0.183c0.243-0.244,0.243-0.64,0-0.884  l-4.116-4.116l1.616-1.616l1.616,1.616c0.122,0.122,0.282,0.183,0.442,0.183s0.32-0.061,0.442-0.183c0.243-0.244,0.243-0.64,0-0.884  l-1.616-1.616l1.616-1.616l2.866,2.866c0.122,0.122,0.282,0.183,0.442,0.183s0.32-0.061,0.442-0.183c0.243-0.244,0.243-0.64,0-0.884  l-2.866-2.866l1.616-1.616l1.616,1.616c0.122,0.122,0.282,0.183,0.442,0.183s0.32-0.061,0.442-0.183c0.243-0.244,0.243-0.64,0-0.884  l-1.616-1.616l1.616-1.616l4.116,4.116c0.122,0.122,0.282,0.183,0.442,0.183s0.32-0.061,0.442-0.183c0.243-0.244,0.243-0.64,0-0.884  l-4.116-4.116l1.616-1.616l1.616,1.616c0.122,0.122,0.282,0.183,0.442,0.183s0.32-0.061,0.442-0.183c0.243-0.244,0.243-0.64,0-0.884  l-1.616-1.616l1.616-1.616l2.866,2.866c0.122,0.122,0.282,0.183,0.442,0.183s0.32-0.061,0.442-0.183c0.243-0.244,0.243-0.64,0-0.884  l-2.866-2.866l1.616-1.616l1.616,1.616c0.122,0.122,0.282,0.183,0.442,0.183s0.32-0.061,0.442-0.183c0.243-0.244,0.243-0.64,0-0.884  l-1.616-1.616l1.616-1.616l4.116,4.116c0.122,0.122,0.282,0.183,0.442,0.183s0.32-0.061,0.442-0.183c0.243-0.244,0.243-0.64,0-0.884  l-4.116-4.116l1.616-1.616l1.616,1.616c0.122,0.122,0.282,0.183,0.442,0.183s0.32-0.061,0.442-0.183c0.243-0.244,0.243-0.64,0-0.884  l-1.616-1.616l1.616-1.616l2.866,2.866c0.122,0.122,0.282,0.183,0.442,0.183s0.32-0.061,0.442-0.183c0.243-0.244,0.243-0.64,0-0.884  l-2.866-2.866l1.616-1.616l1.616,1.616c0.122,0.122,0.282,0.183,0.442,0.183s0.32-0.061,0.442-0.183c0.243-0.244,0.243-0.64,0-0.884  l-1.616-1.616l1.616-1.616l4.116,4.116c0.122,0.122,0.282,0.183,0.442,0.183s0.32-0.061,0.442-0.183c0.243-0.244,0.243-0.64,0-0.884  l-4.116-4.116l1.616-1.616l1.616,1.616c0.122,0.122,0.282,0.183,0.442,0.183s0.32-0.061,0.442-0.183c0.243-0.244,0.243-0.64,0-0.884  l-1.616-1.616l1.616-1.616l2.866,2.866c0.122,0.122,0.282,0.183,0.442,0.183s0.32-0.061,0.442-0.183c0.243-0.244,0.243-0.64,0-0.884  l-2.866-2.866l1.616-1.616l1.616,1.616c0.122,0.122,0.282,0.183,0.442,0.183s0.32-0.061,0.442-0.183c0.243-0.244,0.243-0.64,0-0.884  l-1.616-1.616l1.616-1.616l4.116,4.116c0.122,0.122,0.282,0.183,0.442,0.183s0.32-0.061,0.442-0.183c0.243-0.244,0.243-0.64,0-0.884  l-4.116-4.116l1.616-1.616l1.616,1.616c0.122,0.122,0.282,0.183,0.442,0.183s0.32-0.061,0.442-0.183c0.243-0.244,0.243-0.64,0-0.884  l-1.616-1.616l3.674-3.674L91.982,21.25L21.25,91.982z"/></svg>