<?xml version="1.0" encoding="utf-8"?>
<!-- Generator: Adobe Illustrator 20.1.0, SVG Export Plug-In . SVG Version: 6.00 Build 0)  -->
<svg version="1.1" id="Layer_1" xmlns="http://www.w3.org/2000/svg" xmlns:xlink="http://www.w3.org/1999/xlink" x="0px" y="0px"
	 viewBox="0 0 100 125" style="enable-background:new 0 0 100 125;" xml:space="preserve">
<style type="text/css">
	.st0{opacity:0.52;fill:#EABC54;}
</style>
<rect x="-1.6" y="40" transform="matrix(0.7071 -0.7071 0.7071 0.7071 -21.0455 49.3935)" class="st0" width="101.4" height="20.3"/>
<path d="M79.6,5.4c-0.5-0.5-1.3-0.5-1.8,0L5.4,77.9c-0.5,0.5-0.5,1.3,0,1.8l15,15c0.2,0.2,0.6,0.4,0.9,0.4s0.6-0.1,0.9-0.4
	l72.5-72.5c0.5-0.5,0.5-1.3,0-1.8L79.6,5.4z M21.2,92L8,78.8l3.7-3.7l4.1,4.1c0.1,0.1,0.3,0.2,0.4,0.2s0.3-0.1,0.4-0.2
	c0.2-0.2,0.2-0.6,0-0.9l-4.1-4.1l1.6-1.6l1.6,1.6c0.1,0.1,0.3,0.2,0.4,0.2s0.3-0.1,0.4-0.2c0.2-0.2,0.2-0.6,0-0.9l-1.6-1.6l1.6-1.6
	l2.9,2.9c0.1,0.1,0.3,0.2,0.4,0.2s0.3-0.1,0.4-0.2c0.2-0.2,0.2-0.6,0-0.9l-2.9-2.9l1.6-1.6l1.6,1.6c0.1,0.1,0.3,0.2,0.4,0.2
	s0.3-0.1,0.4-0.2c0.2-0.2,0.2-0.6,0-0.9l-1.6-1.6l1.6-1.6l4.1,4.1c0.1,0.1,0.3,0.2,0.4,0.2s0.3-0.1,0.4-0.2c0.2-0.2,0.2-0.6,0-0.9
	l-4.1-4.1l1.6-1.6l1.6,1.6c0.1,0.1,0.3,0.2,0.4,0.2s0.3-0.1,0.4-0.2c0.2-0.2,0.2-0.6,0-0.9l-1.6-1.6l1.6-1.6l2.9,2.9
	c0.1,0.1,0.3,0.2,0.4,0.2s0.3-0.1,0.4-0.2c0.2-0.2,0.2-0.6,0-0.9l-2.9-2.9l1.6-1.6l1.6,1.6c0.1,0.1,0.3,0.2,0.4,0.2s0.3-0.1,0.4-0.2
	c0.2-0.2,0.2-0.6,0-0.9l-1.6-1.6l1.6-1.6l4.1,4.1c0.1,0.1,0.3,0.2,0.4,0.2s0.3-0.1,0.4-0.2c0.2-0.2,0.2-0.6,0-0.9l-4.1-4.1l1.6-1.6
	l1.6,1.6c0.1,0.1,0.3,0.2,0.4,0.2s0.3-0.1,0.4-0.2c0.2-0.2,0.2-0.6,0-0.9l-1.6-1.6l1.6-1.6l2.9,2.9c0.1,0.1,0.3,0.2,0.4,0.2
	s0.3-0.1,0.4-0.2c0.2-0.2,0.2-0.6,0-0.9l-2.9-2.9l1.6-1.6l1.6,1.6c0.1,0.1,0.3,0.2,0.4,0.2s0.3-0.1,0.4-0.2c0.2-0.2,0.2-0.6,0-0.9
	l-1.6-1.6l1.6-1.6l4.1,4.1c0.1,0.1,0.3,0.2,0.4,0.2s0.3-0.1,0.4-0.2c0.2-0.2,0.2-0.6,0-0.9l-4.1-4.1l1.6-1.6l1.6,1.6
	c0.1,0.1,0.3,0.2,0.4,0.2s0.3-0.1,0.4-0.2c0.2-0.2,0.2-0.6,0-0.9l-1.6-1.6l1.6-1.6l2.9,2.9c0.1,0.1,0.3,0.2,0.4,0.2s0.3-0.1,0.4-0.2
	c0.2-0.2,0.2-0.6,0-0.9l-2.9-2.9l1.6-1.6l1.6,1.6c0.1,0.1,0.3,0.2,0.4,0.2s0.3-0.1,0.4-0.2c0.2-0.2,0.2-0.6,0-0.9l-1.6-1.6l1.6-1.6
	l4.1,4.1c0.1,0.1,0.3,0.2,0.4,0.2s0.3-0.1,0.4-0.2c0.2-0.2,0.2-0.6,0-0.9l-4.1-4.1l1.6-1.6l1.6,1.6c0.1,0.1,0.3,0.2,0.4,0.2
	s0.3-0.1,0.4-0.2c0.2-0.2,0.2-0.6,0-0.9l-1.6-1.6l1.6-1.6l2.9,2.9c0.1,0.1,0.3,0.2,0.4,0.2s0.3-0.1,0.4-0.2c0.2-0.2,0.2-0.6,0-0.9
	l-2.9-2.9l1.6-1.6l1.6,1.6c0.1,0.1,0.3,0.2,0.4,0.2s0.3-0.1,0.4-0.2c0.2-0.2,0.2-0.6,0-0.9l-1.6-1.6l1.6-1.6l4.1,4.1
	c0.1,0.1,0.3,0.2,0.4,0.2s0.3-0.1,0.4-0.2c0.2-0.2,0.2-0.6,0-0.9l-4.1-4.1l1.6-1.6l1.6,1.6c0.1,0.1,0.3,0.2,0.4,0.2s0.3-0.1,0.4-0.2
	c0.2-0.2,0.2-0.6,0-0.9l-1.6-1.6l1.6-1.6l2.9,2.9c0.1,0.1,0.3,0.2,0.4,0.2s0.3-0.1,0.4-0.2c0.2-0.2,0.2-0.6,0-0.9l-2.9-2.9l1.6-1.6
	l1.6,1.6c0.1,0.1,0.3,0.2,0.4,0.2s0.3-0.1,0.4-0.2c0.2-0.2,0.2-0.6,0-0.9l-1.6-1.6l1.6-1.6l4.1,4.1c0.1,0.1,0.3,0.2,0.4,0.2
	s0.3-0.1,0.4-0.2c0.2-0.2,0.2-0.6,0-0.9l-4.1-4.1l1.6-1.6l1.6,1.6c0.1,0.1,0.3,0.2,0.4,0.2s0.3-0.1,0.4-0.2c0.2-0.2,0.2-0.6,0-0.9
	l-1.6-1.6L78.8,8L92,21.2L21.2,92z"/>
</svg>
